<svg width="389" height="197" viewBox="0 0 389 197" fill="none" xmlns="http://www.w3.org/2000/svg">
<line x1="26" y1="46.5846" x2="116" y2="46.5846" stroke="#1DC061" stroke-width="7"/>
<line x1="276" y1="46.5846" x2="366" y2="46.5846" stroke="#1DC061" stroke-width="7"/>
<line x1="23" y1="144.79" x2="113" y2="144.79" stroke="#1DC061" stroke-width="7"/>
<line x1="276" y1="144.79" x2="366" y2="144.79" stroke="#1DC061" stroke-width="7"/>
<path d="M227.754 10.0153C246.133 16.789 261.944 28.9254 273.068 44.7781C284.191 60.6297 290.097 79.4393 289.999 98.6747C289.901 117.91 283.805 136.661 272.521 152.403C261.236 168.147 245.302 180.128 226.856 186.721" stroke="#006E25" stroke-width="8"/>
<path d="M162.144 186.721C143.606 180.095 127.607 168.028 116.314 152.173C105.022 136.319 98.9805 117.443 99 98.1117C99.0196 78.7801 105.1 59.9164 116.424 44.0844C127.748 28.2514 143.772 16.2155 162.323 9.62527" stroke="#006E25" stroke-width="8"/>
<path d="M228.248 131.335C226.84 136.199 224.824 139.847 222.2 142.279C219.064 145.159 214.744 146.599 209.24 146.599C206.296 146.599 203.416 146.151 200.6 145.255C197.784 144.359 194.232 142.951 189.944 141.031C185.208 138.983 181.336 137.447 178.328 136.423L176.024 135.751C173.272 136.711 170.616 137.191 168.056 137.191C165.112 137.191 163.64 136.551 163.64 135.271C163.64 133.927 165.368 133.255 168.824 133.255C171.064 133.255 173.464 133.511 176.024 134.023C178.072 133.447 180.44 132.551 183.128 131.335C184.792 130.567 186.04 130.023 186.872 129.703C181.432 129.191 176.696 127.495 172.664 124.615C168.696 121.735 165.592 117.799 163.352 112.807C161.176 107.751 160.088 101.863 160.088 95.1433C160.088 88.1033 161.368 81.8633 163.928 76.4233C166.552 70.9833 170.168 66.7593 174.776 63.7513C179.448 60.7433 184.728 59.2393 190.616 59.2393C196.696 59.2393 202.008 60.6153 206.552 63.3673C211.16 66.1193 214.712 70.1193 217.208 75.3673C219.768 80.5513 221.048 86.7593 221.048 93.9913C221.048 100.647 219.896 106.599 217.592 111.847C215.288 117.031 212.056 121.191 207.896 124.327C203.736 127.399 198.968 129.191 193.592 129.703V129.799C192.056 129.991 190.712 130.247 189.56 130.567C188.472 130.951 187 131.527 185.144 132.295C182.84 133.319 180.92 134.055 179.384 134.503C186.488 135.911 192.504 137.031 197.432 137.863C202.424 138.695 206.552 139.111 209.816 139.111C214.36 139.111 217.944 138.439 220.568 137.095C223.256 135.815 225.336 133.703 226.808 130.759L228.248 131.335ZM169.688 94.7593C169.688 101.415 170.616 107.271 172.472 112.327C174.392 117.383 176.952 121.287 180.152 124.039C183.352 126.791 186.936 128.167 190.904 128.167C195 128.167 198.584 126.759 201.656 123.943C204.792 121.063 207.192 117.063 208.856 111.943C210.584 106.823 211.448 100.967 211.448 94.3753C211.448 87.7193 210.488 81.8633 208.568 76.8073C206.712 71.7513 204.184 67.8473 200.984 65.0953C197.784 62.3433 194.2 60.9673 190.232 60.9673C186.136 60.9673 182.52 62.4073 179.384 65.2873C176.312 68.1033 173.912 72.0713 172.184 77.1913C170.52 82.3113 169.688 88.1673 169.688 94.7593Z" fill="black"/>
<line y1="94.2051" x2="100" y2="94.2051" stroke="#006E25" stroke-width="8"/>
<line x1="289" y1="94.2051" x2="389" y2="94.2051" stroke="#006E25" stroke-width="8"/>
</svg>
