<svg width="902" height="203" viewBox="0 0 902 203" fill="none" xmlns="http://www.w3.org/2000/svg">
<path d="M499.248 106.784C497.84 111.648 495.824 115.296 493.2 117.728C490.064 120.608 485.744 122.048 480.24 122.048C477.296 122.048 474.416 121.6 471.6 120.704C468.784 119.808 465.232 118.4 460.944 116.48C456.208 114.432 452.336 112.896 449.328 111.872L447.024 111.2C444.272 112.16 441.616 112.64 439.056 112.64C436.112 112.64 434.64 112 434.64 110.72C434.64 109.376 436.368 108.704 439.824 108.704C442.064 108.704 444.464 108.96 447.024 109.472C449.072 108.896 451.44 108 454.128 106.784C455.792 106.016 457.04 105.472 457.872 105.152C452.432 104.64 447.696 102.944 443.664 100.064C439.696 97.184 436.592 93.248 434.352 88.256C432.176 83.2 431.088 77.312 431.088 70.592C431.088 63.552 432.368 57.312 434.928 51.872C437.552 46.432 441.168 42.208 445.776 39.2C450.448 36.192 455.728 34.688 461.616 34.688C467.696 34.688 473.008 36.064 477.552 38.816C482.16 41.568 485.712 45.568 488.208 50.816C490.768 56 492.048 62.208 492.048 69.44C492.048 76.096 490.896 82.048 488.592 87.296C486.288 92.48 483.056 96.64 478.896 99.776C474.736 102.848 469.968 104.64 464.592 105.152V105.248C463.056 105.44 461.712 105.696 460.56 106.016C459.472 106.4 458 106.976 456.144 107.744C453.84 108.768 451.92 109.504 450.384 109.952C457.488 111.36 463.504 112.48 468.432 113.312C473.424 114.144 477.552 114.56 480.816 114.56C485.36 114.56 488.944 113.888 491.568 112.544C494.256 111.264 496.336 109.152 497.808 106.208L499.248 106.784ZM440.688 70.208C440.688 76.864 441.616 82.72 443.472 87.776C445.392 92.832 447.952 96.736 451.152 99.488C454.352 102.24 457.936 103.616 461.904 103.616C466 103.616 469.584 102.208 472.656 99.392C475.792 96.512 478.192 92.512 479.856 87.392C481.584 82.272 482.448 76.416 482.448 69.824C482.448 63.168 481.488 57.312 479.568 52.256C477.712 47.2 475.184 43.296 471.984 40.544C468.784 37.792 465.2 36.416 461.232 36.416C457.136 36.416 453.52 37.856 450.384 40.736C447.312 43.552 444.912 47.52 443.184 52.64C441.52 57.76 440.688 63.616 440.688 70.208ZM543.524 93.632C543.524 96.576 544.068 98.72 545.156 100.064C546.244 101.408 548.132 102.08 550.82 102.08V104.096C548.836 103.904 546.852 103.808 544.868 103.808C540.836 103.808 537.508 104.256 534.884 105.152V93.824C533.348 97.792 531.172 100.704 528.356 102.56C525.54 104.416 522.468 105.344 519.14 105.344C514.788 105.344 511.46 104.128 509.156 101.696C508.004 100.416 507.172 98.784 506.66 96.8C506.212 94.816 505.988 92.256 505.988 89.12V65.024C505.988 62.08 505.444 59.936 504.356 58.592C503.268 57.248 501.38 56.576 498.692 56.576V54.56C500.676 54.752 502.66 54.848 504.644 54.848C508.676 54.848 512.004 54.4 514.628 53.504V91.232C514.628 93.664 514.756 95.648 515.012 97.184C515.332 98.656 516.004 99.872 517.028 100.832C518.116 101.792 519.748 102.272 521.924 102.272C524.356 102.272 526.564 101.504 528.548 99.968C530.532 98.432 532.068 96.352 533.156 93.728C534.308 91.04 534.884 88.096 534.884 84.896V65.024C534.884 62.08 534.34 59.936 533.252 58.592C532.164 57.248 530.276 56.576 527.588 56.576V54.56C529.572 54.752 531.556 54.848 533.54 54.848C537.572 54.848 540.9 54.4 543.524 53.504V93.632ZM568.586 104.672C564.554 104.672 561.546 103.68 559.562 101.696C557.642 99.648 556.682 96.832 556.682 93.248C556.682 90.368 557.45 88 558.986 86.144C560.586 84.288 562.442 82.816 564.554 81.728C566.73 80.64 569.578 79.488 573.098 78.272C576.682 77.056 579.338 75.936 581.066 74.912C582.794 73.888 583.658 72.512 583.658 70.784V64.832C583.658 61.12 582.858 58.592 581.258 57.248C579.722 55.84 577.546 55.136 574.73 55.136C570.25 55.136 567.082 56.288 565.226 58.592C566.506 58.912 567.562 59.584 568.394 60.608C569.29 61.632 569.738 62.912 569.738 64.448C569.738 66.048 569.226 67.328 568.202 68.288C567.178 69.184 565.866 69.632 564.266 69.632C562.474 69.632 561.13 69.088 560.234 68C559.338 66.848 558.89 65.472 558.89 63.872C558.89 62.336 559.242 61.056 559.946 60.032C560.714 59.008 561.834 57.984 563.306 56.96C564.842 55.872 566.794 54.976 569.162 54.272C571.53 53.568 574.122 53.216 576.938 53.216C581.93 53.216 585.706 54.4 588.266 56.768C589.866 58.24 590.922 60.032 591.434 62.144C592.01 64.192 592.298 66.912 592.298 70.304V96.992C592.298 98.592 592.522 99.744 592.97 100.448C593.418 101.152 594.186 101.504 595.274 101.504C596.042 101.504 596.746 101.344 597.386 101.024C598.09 100.64 598.826 100.128 599.594 99.488L600.65 101.12C598.986 102.4 597.546 103.328 596.33 103.904C595.178 104.416 593.706 104.672 591.914 104.672C588.842 104.672 586.698 103.904 585.482 102.368C584.266 100.832 583.658 98.752 583.658 96.128C581.738 99.328 579.53 101.568 577.034 102.848C574.538 104.064 571.722 104.672 568.586 104.672ZM572.81 100.832C577.034 100.832 580.65 98.4 583.658 93.536V74.72C583.082 75.616 582.282 76.352 581.258 76.928C580.234 77.504 578.666 78.272 576.554 79.232C574.122 80.256 572.138 81.248 570.602 82.208C569.13 83.104 567.85 84.352 566.762 85.952C565.674 87.552 565.13 89.6 565.13 92.096C565.13 94.976 565.834 97.152 567.242 98.624C568.65 100.096 570.506 100.832 572.81 100.832ZM635.79 53.216C640.27 53.216 643.662 54.432 645.966 56.864C647.182 58.144 648.046 59.744 648.558 61.664C649.07 63.584 649.326 66.176 649.326 69.44V95.072C649.326 97.696 649.87 99.52 650.958 100.544C652.046 101.504 653.934 101.984 656.622 101.984V104C650.734 103.744 646.894 103.616 645.102 103.616C643.31 103.616 639.726 103.744 634.35 104V101.984C636.718 101.984 638.35 101.504 639.246 100.544C640.206 99.52 640.686 97.696 640.686 95.072V67.328C640.686 63.744 640.174 61.024 639.15 59.168C638.126 57.248 636.046 56.288 632.91 56.288C630.286 56.288 627.95 57.056 625.902 58.592C623.854 60.128 622.254 62.24 621.102 64.928C620.014 67.552 619.47 70.496 619.47 73.76V95.072C619.47 97.696 619.918 99.52 620.814 100.544C621.774 101.504 623.438 101.984 625.806 101.984V104C620.43 103.744 616.846 103.616 615.054 103.616C613.262 103.616 609.422 103.744 603.534 104V101.984C606.222 101.984 608.11 101.504 609.198 100.544C610.286 99.52 610.83 97.696 610.83 95.072V65.024C610.83 62.08 610.286 59.936 609.198 58.592C608.11 57.248 606.222 56.576 603.534 56.576V54.56C605.582 54.752 607.566 54.848 609.486 54.848C613.518 54.848 616.846 54.4 619.47 53.504V64.832C621.07 60.736 623.278 57.792 626.094 56C628.974 54.144 632.206 53.216 635.79 53.216ZM704.495 93.536C704.495 96.48 705.039 98.624 706.127 99.968C707.215 101.312 709.103 101.984 711.791 101.984V104C709.807 103.808 707.823 103.712 705.839 103.712C701.807 103.712 698.479 104.16 695.855 105.056V96.512C694.703 99.392 692.975 101.6 690.671 103.136C688.367 104.608 685.551 105.344 682.223 105.344C676.079 105.344 671.247 103.136 667.727 98.72C664.271 94.304 662.575 87.84 662.639 79.328C662.639 73.76 663.599 69.024 665.519 65.12C667.503 61.152 670.127 58.176 673.391 56.192C676.719 54.208 680.367 53.216 684.335 53.216C686.767 53.216 688.975 53.696 690.959 54.656C693.007 55.552 694.639 56.96 695.855 58.88V40.256C695.855 37.312 695.311 35.168 694.223 33.824C693.135 32.48 691.247 31.808 688.559 31.808V29.792C690.607 29.984 692.591 30.08 694.511 30.08C698.543 30.08 701.871 29.632 704.495 28.736V93.536ZM685.007 102.464C687.503 102.464 689.743 101.504 691.727 99.584C693.711 97.664 695.087 94.944 695.855 91.424V62.816C694.127 57.888 690.543 55.424 685.103 55.424C681.135 55.424 677.935 57.472 675.503 61.568C673.071 65.6 671.887 71.52 671.951 79.328C671.887 87.008 672.975 92.8 675.215 96.704C677.455 100.544 680.719 102.464 685.007 102.464ZM740.117 53.216C746.645 53.216 751.893 55.392 755.861 59.744C759.893 64.032 761.909 70.56 761.909 79.328C761.909 88.096 759.893 94.624 755.861 98.912C751.893 103.2 746.645 105.344 740.117 105.344C733.589 105.344 728.309 103.2 724.277 98.912C720.309 94.624 718.325 88.096 718.325 79.328C718.325 70.56 720.309 64.032 724.277 59.744C728.309 55.392 733.589 53.216 740.117 53.216ZM740.117 55.136C736.277 55.136 733.237 57.12 730.997 61.088C728.757 64.992 727.637 71.072 727.637 79.328C727.637 87.584 728.757 93.664 730.997 97.568C733.237 101.472 736.277 103.424 740.117 103.424C743.957 103.424 746.997 101.472 749.237 97.568C751.477 93.664 752.597 87.584 752.597 79.328C752.597 71.072 751.477 64.992 749.237 61.088C746.997 57.12 743.957 55.136 740.117 55.136ZM816.809 28.928C820.137 28.928 822.921 29.792 825.161 31.52C827.145 33.12 828.137 35.104 828.137 37.472C828.137 38.944 827.657 40.16 826.697 41.12C825.737 42.08 824.521 42.56 823.049 42.56C821.577 42.56 820.329 42.112 819.305 41.216C818.281 40.256 817.769 38.976 817.769 37.376C817.769 36.032 818.121 34.944 818.825 34.112C819.593 33.28 820.585 32.736 821.801 32.48C821.609 31.84 821.097 31.328 820.265 30.944C819.433 30.56 818.377 30.368 817.097 30.368C815.689 30.368 814.441 30.688 813.353 31.328C812.265 31.968 811.433 32.832 810.857 33.92C810.153 35.2 809.673 37.088 809.417 39.584C809.225 42.08 809.129 46.272 809.129 52.16V54.656H819.401V56.576H809.129V94.112C809.129 97.056 809.961 99.104 811.625 100.256C813.353 101.408 815.913 101.984 819.305 101.984V104L817.001 103.904C810.473 103.712 806.313 103.616 804.521 103.616C802.857 103.616 799.081 103.744 793.193 104V101.984C795.881 101.984 797.769 101.504 798.857 100.544C799.945 99.52 800.489 97.696 800.489 95.072V56.576H792.809V54.656H800.489C800.489 49.024 800.841 44.672 801.545 41.6C802.249 38.528 803.529 35.904 805.385 33.728C806.665 32.256 808.297 31.104 810.281 30.272C812.265 29.376 814.441 28.928 816.809 28.928ZM846.898 53.216C853.426 53.216 858.674 55.392 862.642 59.744C866.674 64.032 868.69 70.56 868.69 79.328C868.69 88.096 866.674 94.624 862.642 98.912C858.674 103.2 853.426 105.344 846.898 105.344C840.37 105.344 835.09 103.2 831.058 98.912C827.09 94.624 825.106 88.096 825.106 79.328C825.106 70.56 827.09 64.032 831.058 59.744C835.09 55.392 840.37 53.216 846.898 53.216ZM846.898 55.136C843.058 55.136 840.018 57.12 837.778 61.088C835.538 64.992 834.418 71.072 834.418 79.328C834.418 87.584 835.538 93.664 837.778 97.568C840.018 101.472 843.058 103.424 846.898 103.424C850.738 103.424 853.778 101.472 856.018 97.568C858.258 93.664 859.378 87.584 859.378 79.328C859.378 71.072 858.258 64.992 856.018 61.088C853.778 57.12 850.738 55.136 846.898 55.136ZM886.916 30.56C888.58 30.56 890.02 31.168 891.236 32.384C892.452 33.6 893.06 35.04 893.06 36.704C893.06 38.368 892.452 39.808 891.236 41.024C890.02 42.24 888.58 42.848 886.916 42.848C885.252 42.848 883.812 42.24 882.596 41.024C881.38 39.808 880.772 38.368 880.772 36.704C880.772 35.04 881.38 33.6 882.596 32.384C883.812 31.168 885.252 30.56 886.916 30.56ZM891.908 95.072C891.908 97.696 892.452 99.52 893.54 100.544C894.628 101.504 896.516 101.984 899.204 101.984V104C893.316 103.744 889.444 103.616 887.588 103.616C885.732 103.616 881.86 103.744 875.972 104V101.984C878.66 101.984 880.548 101.504 881.636 100.544C882.724 99.52 883.268 97.696 883.268 95.072V65.024C883.268 62.08 882.724 59.936 881.636 58.592C880.548 57.248 878.66 56.576 875.972 56.576V54.56C878.02 54.752 880.004 54.848 881.924 54.848C885.956 54.848 889.284 54.4 891.908 53.504V95.072Z" fill="black"/>
<path d="M519.15 184.603C519.15 185.769 519.383 186.569 519.85 187.003C520.35 187.469 521.217 187.703 522.45 187.703V188.753C519.65 188.619 517.85 188.553 517.05 188.553C516.117 188.553 514.1 188.603 511 188.703L509.85 188.753V187.703C511.45 187.703 512.65 187.436 513.45 186.903C514.25 186.403 514.65 185.469 514.65 184.103V175.503C513.983 177.069 513.033 178.286 511.8 179.153C510.6 179.986 509.217 180.403 507.65 180.403C505.683 180.403 503.917 179.903 502.35 178.903C500.817 177.903 499.6 176.386 498.7 174.353C497.8 172.319 497.35 169.819 497.35 166.853C497.35 163.919 497.817 161.436 498.75 159.403C499.683 157.336 500.95 155.803 502.55 154.803C504.183 153.769 506.017 153.253 508.05 153.253C509.75 153.253 511.167 153.553 512.3 154.153C513.433 154.719 514.367 155.636 515.1 156.903L518.65 153.153L519.5 153.503C519.267 154.336 519.15 155.303 519.15 156.403V184.603ZM509.1 178.903C510.333 178.903 511.45 178.403 512.45 177.403C513.483 176.403 514.217 174.986 514.65 173.153V157.703C514.017 156.603 513.167 155.786 512.1 155.253C511.033 154.686 509.817 154.403 508.45 154.403C506.45 154.403 504.9 155.436 503.8 157.503C502.733 159.569 502.2 162.686 502.2 166.853C502.2 170.853 502.783 173.869 503.95 175.903C505.15 177.903 506.867 178.903 509.1 178.903ZM547.324 174.303C547.324 175.836 547.607 176.953 548.174 177.653C548.74 178.353 549.724 178.703 551.124 178.703V179.753C550.09 179.653 549.057 179.603 548.024 179.603C545.924 179.603 544.19 179.836 542.824 180.303V174.403C542.024 176.469 540.89 177.986 539.424 178.953C537.957 179.919 536.357 180.403 534.624 180.403C532.357 180.403 530.624 179.769 529.424 178.503C528.824 177.836 528.39 176.986 528.124 175.953C527.89 174.919 527.774 173.586 527.774 171.953V159.403C527.774 157.869 527.49 156.753 526.924 156.053C526.357 155.353 525.374 155.003 523.974 155.003V153.953C525.007 154.053 526.04 154.103 527.074 154.103C529.174 154.103 530.907 153.869 532.274 153.403V173.053C532.274 174.319 532.34 175.353 532.474 176.153C532.64 176.919 532.99 177.553 533.524 178.053C534.09 178.553 534.94 178.803 536.074 178.803C537.34 178.803 538.49 178.403 539.524 177.603C540.557 176.803 541.357 175.719 541.924 174.353C542.524 172.953 542.824 171.419 542.824 169.753V159.403C542.824 157.869 542.54 156.753 541.974 156.053C541.407 155.353 540.424 155.003 539.024 155.003V153.953C540.057 154.053 541.09 154.103 542.124 154.103C544.224 154.103 545.957 153.869 547.324 153.403V174.303ZM575.377 173.703C574.777 175.536 573.643 177.119 571.977 178.453C570.343 179.753 568.36 180.403 566.027 180.403C563.66 180.403 561.61 179.869 559.877 178.803C558.143 177.703 556.81 176.186 555.877 174.253C554.977 172.286 554.527 170.019 554.527 167.453C554.527 164.553 554.993 162.036 555.927 159.903C556.86 157.769 558.177 156.136 559.877 155.003C561.577 153.836 563.56 153.253 565.827 153.253C568.827 153.253 571.127 154.169 572.727 156.003C574.36 157.803 575.177 160.553 575.177 164.253H559.527C559.427 165.186 559.377 166.253 559.377 167.453C559.377 169.653 559.727 171.569 560.427 173.203C561.16 174.836 562.11 176.103 563.277 177.003C564.477 177.869 565.727 178.303 567.027 178.303C568.627 178.303 570.043 177.919 571.277 177.153C572.51 176.386 573.543 175.103 574.377 173.303L575.377 173.703ZM565.627 154.203C564.06 154.203 562.71 154.969 561.577 156.503C560.443 158.036 559.743 160.303 559.477 163.303H570.377C570.443 160.703 570.06 158.536 569.227 156.803C568.427 155.069 567.227 154.203 565.627 154.203ZM613.121 173.703C612.521 175.536 611.387 177.119 609.721 178.453C608.087 179.753 606.104 180.403 603.771 180.403C601.404 180.403 599.354 179.869 597.621 178.803C595.887 177.703 594.554 176.186 593.621 174.253C592.721 172.286 592.271 170.019 592.271 167.453C592.271 164.553 592.737 162.036 593.671 159.903C594.604 157.769 595.921 156.136 597.621 155.003C599.321 153.836 601.304 153.253 603.571 153.253C606.571 153.253 608.871 154.169 610.471 156.003C612.104 157.803 612.921 160.553 612.921 164.253H597.271C597.171 165.186 597.121 166.253 597.121 167.453C597.121 169.653 597.471 171.569 598.171 173.203C598.904 174.836 599.854 176.103 601.021 177.003C602.221 177.869 603.471 178.303 604.771 178.303C606.371 178.303 607.787 177.919 609.021 177.153C610.254 176.386 611.287 175.103 612.121 173.303L613.121 173.703ZM603.371 154.203C601.804 154.203 600.454 154.969 599.321 156.503C598.187 158.036 597.487 160.303 597.221 163.303H608.121C608.187 160.703 607.804 158.536 606.971 156.803C606.171 155.069 604.971 154.203 603.371 154.203ZM639.414 174.303C639.414 175.836 639.697 176.953 640.264 177.653C640.83 178.353 641.814 178.703 643.214 178.703V179.753C642.18 179.653 641.147 179.603 640.114 179.603C638.014 179.603 636.28 179.836 634.914 180.303V174.403C634.114 176.469 632.98 177.986 631.514 178.953C630.047 179.919 628.447 180.403 626.714 180.403C624.447 180.403 622.714 179.769 621.514 178.503C620.914 177.836 620.48 176.986 620.214 175.953C619.98 174.919 619.864 173.586 619.864 171.953V159.403C619.864 157.869 619.58 156.753 619.014 156.053C618.447 155.353 617.464 155.003 616.064 155.003V153.953C617.097 154.053 618.13 154.103 619.164 154.103C621.264 154.103 622.997 153.869 624.364 153.403V173.053C624.364 174.319 624.43 175.353 624.564 176.153C624.73 176.919 625.08 177.553 625.614 178.053C626.18 178.553 627.03 178.803 628.164 178.803C629.43 178.803 630.58 178.403 631.614 177.603C632.647 176.803 633.447 175.719 634.014 174.353C634.614 172.953 634.914 171.419 634.914 169.753V159.403C634.914 157.869 634.63 156.753 634.064 156.053C633.497 155.353 632.514 155.003 631.114 155.003V153.953C632.147 154.053 633.18 154.103 634.214 154.103C636.314 154.103 638.047 153.869 639.414 153.403V174.303ZM675.018 140.603C676.384 140.603 677.651 140.736 678.818 141.003C680.018 141.269 680.984 141.636 681.718 142.103C682.851 142.803 683.418 143.719 683.418 144.853C683.418 145.753 683.101 146.519 682.468 147.153C681.834 147.786 681.084 148.103 680.218 148.103C679.351 148.103 678.601 147.786 677.968 147.153C677.334 146.519 677.018 145.769 677.018 144.903C677.018 144.303 677.168 143.753 677.468 143.253C677.768 142.753 678.168 142.369 678.668 142.103C677.901 141.603 676.684 141.353 675.018 141.353C671.718 141.353 669.351 142.636 667.918 145.203C667.418 146.069 667.068 147.169 666.868 148.503C666.668 149.803 666.568 151.636 666.568 154.003H674.618C676.718 154.003 678.351 153.969 679.518 153.903C680.718 153.803 681.851 153.636 682.918 153.403V175.053C682.918 176.419 683.201 177.369 683.768 177.903C684.334 178.403 685.318 178.653 686.718 178.653V179.703C683.651 179.569 681.634 179.503 680.668 179.503C679.701 179.503 677.684 179.569 674.618 179.703V178.653C676.018 178.653 677.001 178.403 677.568 177.903C678.134 177.369 678.418 176.419 678.418 175.053V159.403C678.418 157.869 678.134 156.753 677.568 156.053C677.001 155.353 676.018 155.003 674.618 155.003H666.568V175.053C666.568 176.419 666.918 177.369 667.618 177.903C668.351 178.403 669.434 178.653 670.868 178.653V179.703L669.768 179.653C666.868 179.553 665.051 179.503 664.318 179.503C663.351 179.503 661.334 179.569 658.268 179.703V178.653C659.668 178.653 660.651 178.403 661.218 177.903C661.784 177.369 662.068 176.419 662.068 175.053V155.003H658.068V154.003H662.068C662.068 149.503 663.268 146.119 665.668 143.853C666.701 142.886 668.001 142.103 669.568 141.503C671.134 140.903 672.951 140.603 675.018 140.603ZM695.225 178.953H700.725C702.791 178.953 704.408 178.319 705.575 177.053C706.741 175.753 707.441 173.703 707.675 170.903H708.825C708.825 175.269 708.891 178.269 709.025 179.903C706.391 179.769 703.291 179.703 699.725 179.703C696.558 179.703 693.191 179.786 689.625 179.953L704.075 154.703H698.575C696.341 154.703 694.675 155.336 693.575 156.603C692.508 157.836 691.858 159.886 691.625 162.753H690.475C690.475 158.386 690.408 155.386 690.275 153.753C692.908 153.886 696.008 153.953 699.575 153.953C702.741 153.953 706.108 153.869 709.675 153.703L695.225 178.953ZM731.105 141.453C731.972 141.453 732.722 141.769 733.355 142.403C733.988 143.036 734.305 143.786 734.305 144.653C734.305 145.519 733.988 146.269 733.355 146.903C732.722 147.536 731.972 147.853 731.105 147.853C730.238 147.853 729.488 147.536 728.855 146.903C728.222 146.269 727.905 145.519 727.905 144.653C727.905 143.786 728.222 143.036 728.855 142.403C729.488 141.769 730.238 141.453 731.105 141.453ZM733.705 175.053C733.705 176.419 733.988 177.369 734.555 177.903C735.122 178.403 736.105 178.653 737.505 178.653V179.703C734.438 179.569 732.422 179.503 731.455 179.503C730.488 179.503 728.472 179.569 725.405 179.703V178.653C726.805 178.653 727.788 178.403 728.355 177.903C728.922 177.369 729.205 176.419 729.205 175.053V159.403C729.205 157.869 728.922 156.753 728.355 156.053C727.788 155.353 726.805 155.003 725.405 155.003V153.953C726.472 154.053 727.505 154.103 728.505 154.103C730.605 154.103 732.338 153.869 733.705 153.403V175.053ZM749.004 153.253C750.204 153.253 751.27 153.436 752.204 153.803C753.137 154.169 753.887 154.603 754.454 155.103C754.82 155.369 755.12 155.503 755.354 155.503C755.954 155.503 756.32 154.769 756.454 153.303H757.604C757.47 154.936 757.404 157.769 757.404 161.803H756.254C755.887 159.603 755.17 157.786 754.104 156.353C753.07 154.919 751.52 154.203 749.454 154.203C748.254 154.203 747.27 154.553 746.504 155.253C745.737 155.919 745.354 156.853 745.354 158.053C745.354 159.219 745.754 160.203 746.554 161.003C747.354 161.769 748.637 162.703 750.404 163.803C750.704 163.969 751.154 164.253 751.754 164.653C753.287 165.653 754.52 166.536 755.454 167.303C756.387 168.069 757.137 168.953 757.704 169.953C758.304 170.953 758.604 172.103 758.604 173.403C758.604 175.603 757.77 177.319 756.104 178.553C754.47 179.786 752.454 180.403 750.054 180.403C748.554 180.403 747.237 180.169 746.104 179.703C745.37 179.336 744.687 178.886 744.054 178.353C743.92 178.219 743.77 178.153 743.604 178.153C743.37 178.153 743.154 178.319 742.954 178.653C742.787 178.986 742.654 179.453 742.554 180.053H741.404C741.537 178.153 741.604 174.819 741.604 170.053H742.754C743.12 173.186 743.787 175.536 744.754 177.103C745.72 178.636 747.37 179.403 749.704 179.403C750.87 179.403 751.904 179.019 752.804 178.253C753.704 177.486 754.154 176.286 754.154 174.653C754.154 173.353 753.704 172.253 752.804 171.353C751.937 170.453 750.504 169.369 748.504 168.103C746.87 167.069 745.604 166.219 744.704 165.553C743.837 164.886 743.104 164.069 742.504 163.103C741.904 162.136 741.604 161.003 741.604 159.703C741.604 157.603 742.304 156.003 743.704 154.903C745.104 153.803 746.87 153.253 749.004 153.253ZM771.367 153.253C772.567 153.253 773.633 153.436 774.567 153.803C775.5 154.169 776.25 154.603 776.817 155.103C777.183 155.369 777.483 155.503 777.717 155.503C778.317 155.503 778.683 154.769 778.817 153.303H779.967C779.833 154.936 779.767 157.769 779.767 161.803H778.617C778.25 159.603 777.533 157.786 776.467 156.353C775.433 154.919 773.883 154.203 771.817 154.203C770.617 154.203 769.633 154.553 768.867 155.253C768.1 155.919 767.717 156.853 767.717 158.053C767.717 159.219 768.117 160.203 768.917 161.003C769.717 161.769 771 162.703 772.767 163.803C773.067 163.969 773.517 164.253 774.117 164.653C775.65 165.653 776.883 166.536 777.817 167.303C778.75 168.069 779.5 168.953 780.067 169.953C780.667 170.953 780.967 172.103 780.967 173.403C780.967 175.603 780.133 177.319 778.467 178.553C776.833 179.786 774.817 180.403 772.417 180.403C770.917 180.403 769.6 180.169 768.467 179.703C767.733 179.336 767.05 178.886 766.417 178.353C766.283 178.219 766.133 178.153 765.967 178.153C765.733 178.153 765.517 178.319 765.317 178.653C765.15 178.986 765.017 179.453 764.917 180.053H763.767C763.9 178.153 763.967 174.819 763.967 170.053H765.117C765.483 173.186 766.15 175.536 767.117 177.103C768.083 178.636 769.733 179.403 772.067 179.403C773.233 179.403 774.267 179.019 775.167 178.253C776.067 177.486 776.517 176.286 776.517 174.653C776.517 173.353 776.067 172.253 775.167 171.353C774.3 170.453 772.867 169.369 770.867 168.103C769.233 167.069 767.967 166.219 767.067 165.553C766.2 164.886 765.467 164.069 764.867 163.103C764.267 162.136 763.967 161.003 763.967 159.703C763.967 157.603 764.667 156.003 766.067 154.903C767.467 153.803 769.233 153.253 771.367 153.253ZM797.03 153.253C800.43 153.253 803.163 154.386 805.23 156.653C807.33 158.886 808.38 162.286 808.38 166.853C808.38 171.419 807.33 174.819 805.23 177.053C803.163 179.286 800.43 180.403 797.03 180.403C793.63 180.403 790.88 179.286 788.78 177.053C786.713 174.819 785.68 171.419 785.68 166.853C785.68 162.286 786.713 158.886 788.78 156.653C790.88 154.386 793.63 153.253 797.03 153.253ZM797.03 154.253C795.03 154.253 793.447 155.286 792.28 157.353C791.113 159.386 790.53 162.553 790.53 166.853C790.53 171.153 791.113 174.319 792.28 176.353C793.447 178.386 795.03 179.403 797.03 179.403C799.03 179.403 800.613 178.386 801.78 176.353C802.947 174.319 803.53 171.153 803.53 166.853C803.53 162.553 802.947 159.386 801.78 157.353C800.613 155.286 799.03 154.253 797.03 154.253ZM820.545 140.603C823.712 140.603 826.245 141.419 828.145 143.053C830.078 144.653 831.045 146.836 831.045 149.603C831.045 152.336 830.028 154.653 827.995 156.553C825.995 158.453 823.262 159.836 819.795 160.703V168.003H818.795V160.253C821.862 159.119 823.928 157.786 824.995 156.253C826.062 154.686 826.595 152.786 826.595 150.553C826.595 147.519 825.962 145.269 824.695 143.803C823.462 142.336 821.762 141.603 819.595 141.603C818.628 141.603 817.695 141.736 816.795 142.003C815.928 142.269 815.228 142.736 814.695 143.403C815.328 143.536 815.828 143.819 816.195 144.253C816.595 144.686 816.795 145.253 816.795 145.953C816.795 146.786 816.528 147.453 815.995 147.953C815.462 148.419 814.812 148.653 814.045 148.653C813.278 148.653 812.645 148.403 812.145 147.903C811.645 147.403 811.395 146.769 811.395 146.003C811.395 144.669 812.178 143.469 813.745 142.403C815.512 141.203 817.778 140.603 820.545 140.603ZM819.345 174.003C820.212 174.003 820.962 174.319 821.595 174.953C822.228 175.586 822.545 176.336 822.545 177.203C822.545 178.069 822.228 178.819 821.595 179.453C820.962 180.086 820.212 180.403 819.345 180.403C818.478 180.403 817.728 180.086 817.095 179.453C816.462 178.819 816.145 178.069 816.145 177.203C816.145 176.336 816.462 175.586 817.095 174.953C817.728 174.319 818.478 174.003 819.345 174.003Z" fill="black"/>
<line x1="26" y1="52.5846" x2="116" y2="52.5846" stroke="#1DC061" stroke-width="7"/>
<line x1="276" y1="52.5846" x2="366" y2="52.5846" stroke="#1DC061" stroke-width="7"/>
<line x1="23" y1="150.79" x2="113" y2="150.79" stroke="#1DC061" stroke-width="7"/>
<line x1="276" y1="150.79" x2="366" y2="150.79" stroke="#1DC061" stroke-width="7"/>
<path d="M227.754 16.0153C246.133 22.789 261.944 34.9254 273.068 50.7781C284.191 66.6297 290.097 85.4393 289.999 104.675C289.901 123.91 283.805 142.661 272.521 158.403C261.236 174.147 245.302 186.128 226.856 192.721" stroke="#006E25" stroke-width="8"/>
<path d="M162.144 192.721C143.606 186.095 127.607 174.028 116.314 158.173C105.022 142.319 98.9805 123.443 99 104.112C99.0196 84.7801 105.1 65.9164 116.424 50.0844C127.748 34.2514 143.772 22.2155 162.323 15.6253" stroke="#006E25" stroke-width="8"/>
<path d="M228.248 137.335C226.84 142.199 224.824 145.847 222.2 148.279C219.064 151.159 214.744 152.599 209.24 152.599C206.296 152.599 203.416 152.151 200.6 151.255C197.784 150.359 194.232 148.951 189.944 147.031C185.208 144.983 181.336 143.447 178.328 142.423L176.024 141.751C173.272 142.711 170.616 143.191 168.056 143.191C165.112 143.191 163.64 142.551 163.64 141.271C163.64 139.927 165.368 139.255 168.824 139.255C171.064 139.255 173.464 139.511 176.024 140.023C178.072 139.447 180.44 138.551 183.128 137.335C184.792 136.567 186.04 136.023 186.872 135.703C181.432 135.191 176.696 133.495 172.664 130.615C168.696 127.735 165.592 123.799 163.352 118.807C161.176 113.751 160.088 107.863 160.088 101.143C160.088 94.1033 161.368 87.8633 163.928 82.4233C166.552 76.9833 170.168 72.7593 174.776 69.7513C179.448 66.7433 184.728 65.2393 190.616 65.2393C196.696 65.2393 202.008 66.6153 206.552 69.3673C211.16 72.1193 214.712 76.1193 217.208 81.3673C219.768 86.5513 221.048 92.7593 221.048 99.9913C221.048 106.647 219.896 112.599 217.592 117.847C215.288 123.031 212.056 127.191 207.896 130.327C203.736 133.399 198.968 135.191 193.592 135.703V135.799C192.056 135.991 190.712 136.247 189.56 136.567C188.472 136.951 187 137.527 185.144 138.295C182.84 139.319 180.92 140.055 179.384 140.503C186.488 141.911 192.504 143.031 197.432 143.863C202.424 144.695 206.552 145.111 209.816 145.111C214.36 145.111 217.944 144.439 220.568 143.095C223.256 141.815 225.336 139.703 226.808 136.759L228.248 137.335ZM169.688 100.759C169.688 107.415 170.616 113.271 172.472 118.327C174.392 123.383 176.952 127.287 180.152 130.039C183.352 132.791 186.936 134.167 190.904 134.167C195 134.167 198.584 132.759 201.656 129.943C204.792 127.063 207.192 123.063 208.856 117.943C210.584 112.823 211.448 106.967 211.448 100.375C211.448 93.7193 210.488 87.8633 208.568 82.8073C206.712 77.7513 204.184 73.8473 200.984 71.0953C197.784 68.3433 194.2 66.9673 190.232 66.9673C186.136 66.9673 182.52 68.4073 179.384 71.2873C176.312 74.1033 173.912 78.0713 172.184 83.1913C170.52 88.3113 169.688 94.1673 169.688 100.759Z" fill="black"/>
<line y1="100.205" x2="100" y2="100.205" stroke="#006E25" stroke-width="8"/>
<line x1="289" y1="100.205" x2="389" y2="100.205" stroke="#006E25" stroke-width="8"/>
</svg>
