<svg width="476" height="390" viewBox="0 0 476 390" fill="none" xmlns="http://www.w3.org/2000/svg">
<line x1="63" y1="47.5" x2="153" y2="47.5" stroke="#1DC061" stroke-width="7"/>
<line x1="313" y1="47.5" x2="403" y2="47.5" stroke="#1DC061" stroke-width="7"/>
<line x1="60" y1="147.5" x2="150" y2="147.5" stroke="#1DC061" stroke-width="7"/>
<line x1="313" y1="147.5" x2="403" y2="147.5" stroke="#1DC061" stroke-width="7"/>
<path d="M264.732 10.1215C283.101 17.0154 298.916 29.3716 310.048 45.5266C321.181 61.6816 327.097 80.8597 326.999 100.479C326.901 120.098 320.794 139.216 309.501 155.259C298.208 171.302 282.27 183.5 263.834 190.21" stroke="#006E25" stroke-width="8"/>
<path d="M199.166 190.21C180.638 183.467 164.635 171.181 153.334 155.024C142.033 138.867 135.98 119.622 136 99.9048C136.02 80.1874 142.11 60.9543 153.443 44.8197C164.777 28.6851 180.804 16.4315 199.345 9.72454" stroke="#006E25" stroke-width="8"/>
<path d="M73.248 301.784C71.84 306.648 69.824 310.296 67.2 312.728C64.064 315.608 59.744 317.048 54.24 317.048C51.296 317.048 48.416 316.6 45.6 315.704C42.784 314.808 39.232 313.4 34.944 311.48C30.208 309.432 26.336 307.896 23.328 306.872L21.024 306.2C18.272 307.16 15.616 307.64 13.056 307.64C10.112 307.64 8.64 307 8.64 305.72C8.64 304.376 10.368 303.704 13.824 303.704C16.064 303.704 18.464 303.96 21.024 304.472C23.072 303.896 25.44 303 28.128 301.784C29.792 301.016 31.04 300.472 31.872 300.152C26.432 299.64 21.696 297.944 17.664 295.064C13.696 292.184 10.592 288.248 8.352 283.256C6.176 278.2 5.088 272.312 5.088 265.592C5.088 258.552 6.368 252.312 8.928 246.872C11.552 241.432 15.168 237.208 19.776 234.2C24.448 231.192 29.728 229.688 35.616 229.688C41.696 229.688 47.008 231.064 51.552 233.816C56.16 236.568 59.712 240.568 62.208 245.816C64.768 251 66.048 257.208 66.048 264.44C66.048 271.096 64.896 277.048 62.592 282.296C60.288 287.48 57.056 291.64 52.896 294.776C48.736 297.848 43.968 299.64 38.592 300.152V300.248C37.056 300.44 35.712 300.696 34.56 301.016C33.472 301.4 32 301.976 30.144 302.744C27.84 303.768 25.92 304.504 24.384 304.952C31.488 306.36 37.504 307.48 42.432 308.312C47.424 309.144 51.552 309.56 54.816 309.56C59.36 309.56 62.944 308.888 65.568 307.544C68.256 306.264 70.336 304.152 71.808 301.208L73.248 301.784ZM14.688 265.208C14.688 271.864 15.616 277.72 17.472 282.776C19.392 287.832 21.952 291.736 25.152 294.488C28.352 297.24 31.936 298.616 35.904 298.616C40 298.616 43.584 297.208 46.656 294.392C49.792 291.512 52.192 287.512 53.856 282.392C55.584 277.272 56.448 271.416 56.448 264.824C56.448 258.168 55.488 252.312 53.568 247.256C51.712 242.2 49.184 238.296 45.984 235.544C42.784 232.792 39.2 231.416 35.232 231.416C31.136 231.416 27.52 232.856 24.384 235.736C21.312 238.552 18.912 242.52 17.184 247.64C15.52 252.76 14.688 258.616 14.688 265.208ZM117.524 288.632C117.524 291.576 118.068 293.72 119.156 295.064C120.244 296.408 122.132 297.08 124.82 297.08V299.096C122.836 298.904 120.852 298.808 118.868 298.808C114.836 298.808 111.508 299.256 108.884 300.152V288.824C107.348 292.792 105.172 295.704 102.356 297.56C99.5403 299.416 96.4683 300.344 93.1403 300.344C88.7883 300.344 85.4603 299.128 83.1562 296.696C82.0043 295.416 81.1723 293.784 80.6603 291.8C80.2123 289.816 79.9883 287.256 79.9883 284.12V260.024C79.9883 257.08 79.4443 254.936 78.3563 253.592C77.2683 252.248 75.3803 251.576 72.6923 251.576V249.56C74.6763 249.752 76.6603 249.848 78.6443 249.848C82.6763 249.848 86.0043 249.4 88.6283 248.504V286.232C88.6283 288.664 88.7563 290.648 89.0123 292.184C89.3323 293.656 90.0043 294.872 91.0283 295.832C92.1163 296.792 93.7483 297.272 95.9243 297.272C98.3563 297.272 100.564 296.504 102.548 294.968C104.532 293.432 106.068 291.352 107.156 288.728C108.308 286.04 108.884 283.096 108.884 279.896V260.024C108.884 257.08 108.34 254.936 107.252 253.592C106.164 252.248 104.276 251.576 101.588 251.576V249.56C103.572 249.752 105.556 249.848 107.54 249.848C111.572 249.848 114.9 249.4 117.524 248.504V288.632ZM142.586 299.672C138.554 299.672 135.546 298.68 133.562 296.696C131.642 294.648 130.682 291.832 130.682 288.248C130.682 285.368 131.45 283 132.986 281.144C134.586 279.288 136.442 277.816 138.554 276.728C140.73 275.64 143.578 274.488 147.098 273.272C150.682 272.056 153.338 270.936 155.066 269.912C156.794 268.888 157.658 267.512 157.658 265.784V259.832C157.658 256.12 156.858 253.592 155.258 252.248C153.722 250.84 151.546 250.136 148.73 250.136C144.25 250.136 141.082 251.288 139.226 253.592C140.506 253.912 141.562 254.584 142.394 255.608C143.29 256.632 143.738 257.912 143.738 259.448C143.738 261.048 143.226 262.328 142.202 263.288C141.178 264.184 139.866 264.632 138.266 264.632C136.474 264.632 135.13 264.088 134.234 263C133.338 261.848 132.89 260.472 132.89 258.872C132.89 257.336 133.242 256.056 133.946 255.032C134.714 254.008 135.834 252.984 137.306 251.96C138.842 250.872 140.794 249.976 143.162 249.272C145.53 248.568 148.122 248.216 150.938 248.216C155.93 248.216 159.706 249.4 162.266 251.768C163.866 253.24 164.922 255.032 165.434 257.144C166.01 259.192 166.298 261.912 166.298 265.304V291.992C166.298 293.592 166.522 294.744 166.97 295.448C167.418 296.152 168.186 296.504 169.274 296.504C170.042 296.504 170.746 296.344 171.386 296.024C172.09 295.64 172.826 295.128 173.594 294.488L174.65 296.12C172.986 297.4 171.546 298.328 170.33 298.904C169.178 299.416 167.706 299.672 165.914 299.672C162.842 299.672 160.698 298.904 159.482 297.368C158.266 295.832 157.658 293.752 157.658 291.128C155.738 294.328 153.53 296.568 151.034 297.848C148.538 299.064 145.722 299.672 142.586 299.672ZM146.81 295.832C151.034 295.832 154.65 293.4 157.658 288.536V269.72C157.082 270.616 156.282 271.352 155.258 271.928C154.234 272.504 152.666 273.272 150.554 274.232C148.122 275.256 146.138 276.248 144.602 277.208C143.13 278.104 141.85 279.352 140.762 280.952C139.674 282.552 139.13 284.6 139.13 287.096C139.13 289.976 139.834 292.152 141.242 293.624C142.65 295.096 144.506 295.832 146.81 295.832ZM209.79 248.216C214.27 248.216 217.662 249.432 219.966 251.864C221.182 253.144 222.046 254.744 222.558 256.664C223.07 258.584 223.326 261.176 223.326 264.44V290.072C223.326 292.696 223.87 294.52 224.958 295.544C226.046 296.504 227.934 296.984 230.622 296.984V299C224.734 298.744 220.894 298.616 219.102 298.616C217.31 298.616 213.726 298.744 208.35 299V296.984C210.718 296.984 212.35 296.504 213.246 295.544C214.206 294.52 214.686 292.696 214.686 290.072V262.328C214.686 258.744 214.174 256.024 213.15 254.168C212.126 252.248 210.046 251.288 206.91 251.288C204.286 251.288 201.95 252.056 199.902 253.592C197.854 255.128 196.254 257.24 195.102 259.928C194.014 262.552 193.47 265.496 193.47 268.76V290.072C193.47 292.696 193.918 294.52 194.814 295.544C195.774 296.504 197.438 296.984 199.806 296.984V299C194.43 298.744 190.846 298.616 189.054 298.616C187.262 298.616 183.422 298.744 177.534 299V296.984C180.222 296.984 182.11 296.504 183.198 295.544C184.286 294.52 184.83 292.696 184.83 290.072V260.024C184.83 257.08 184.286 254.936 183.198 253.592C182.11 252.248 180.222 251.576 177.534 251.576V249.56C179.582 249.752 181.566 249.848 183.486 249.848C187.518 249.848 190.846 249.4 193.47 248.504V259.832C195.07 255.736 197.278 252.792 200.094 251C202.974 249.144 206.206 248.216 209.79 248.216ZM278.495 288.536C278.495 291.48 279.039 293.624 280.127 294.968C281.215 296.312 283.103 296.984 285.791 296.984V299C283.807 298.808 281.823 298.712 279.839 298.712C275.807 298.712 272.479 299.16 269.855 300.056V291.512C268.703 294.392 266.975 296.6 264.671 298.136C262.367 299.608 259.551 300.344 256.223 300.344C250.079 300.344 245.247 298.136 241.727 293.72C238.271 289.304 236.575 282.84 236.639 274.328C236.639 268.76 237.599 264.024 239.519 260.12C241.503 256.152 244.127 253.176 247.391 251.192C250.719 249.208 254.367 248.216 258.335 248.216C260.767 248.216 262.975 248.696 264.959 249.656C267.007 250.552 268.639 251.96 269.855 253.88V235.256C269.855 232.312 269.311 230.168 268.223 228.824C267.135 227.48 265.247 226.808 262.559 226.808V224.792C264.607 224.984 266.591 225.08 268.511 225.08C272.543 225.08 275.871 224.632 278.495 223.736V288.536ZM259.007 297.464C261.503 297.464 263.743 296.504 265.727 294.584C267.711 292.664 269.087 289.944 269.855 286.424V257.816C268.127 252.888 264.543 250.424 259.103 250.424C255.135 250.424 251.935 252.472 249.503 256.568C247.071 260.6 245.887 266.52 245.951 274.328C245.887 282.008 246.975 287.8 249.215 291.704C251.455 295.544 254.719 297.464 259.007 297.464ZM314.117 248.216C320.645 248.216 325.893 250.392 329.861 254.744C333.893 259.032 335.909 265.56 335.909 274.328C335.909 283.096 333.893 289.624 329.861 293.912C325.893 298.2 320.645 300.344 314.117 300.344C307.589 300.344 302.309 298.2 298.277 293.912C294.309 289.624 292.325 283.096 292.325 274.328C292.325 265.56 294.309 259.032 298.277 254.744C302.309 250.392 307.589 248.216 314.117 248.216ZM314.117 250.136C310.277 250.136 307.237 252.12 304.997 256.088C302.757 259.992 301.637 266.072 301.637 274.328C301.637 282.584 302.757 288.664 304.997 292.568C307.237 296.472 310.277 298.424 314.117 298.424C317.957 298.424 320.997 296.472 323.237 292.568C325.477 288.664 326.597 282.584 326.597 274.328C326.597 266.072 325.477 259.992 323.237 256.088C320.997 252.12 317.957 250.136 314.117 250.136ZM390.809 223.928C394.137 223.928 396.921 224.792 399.161 226.52C401.145 228.12 402.137 230.104 402.137 232.472C402.137 233.944 401.657 235.16 400.697 236.12C399.737 237.08 398.521 237.56 397.049 237.56C395.577 237.56 394.329 237.112 393.305 236.216C392.281 235.256 391.769 233.976 391.769 232.376C391.769 231.032 392.121 229.944 392.825 229.112C393.593 228.28 394.585 227.736 395.801 227.48C395.609 226.84 395.097 226.328 394.265 225.944C393.433 225.56 392.377 225.368 391.097 225.368C389.689 225.368 388.441 225.688 387.353 226.328C386.265 226.968 385.433 227.832 384.857 228.92C384.153 230.2 383.673 232.088 383.417 234.584C383.225 237.08 383.129 241.272 383.129 247.16V249.656H393.401V251.576H383.129V289.112C383.129 292.056 383.961 294.104 385.625 295.256C387.353 296.408 389.913 296.984 393.305 296.984V299L391.001 298.904C384.473 298.712 380.313 298.616 378.521 298.616C376.857 298.616 373.081 298.744 367.193 299V296.984C369.881 296.984 371.769 296.504 372.857 295.544C373.945 294.52 374.489 292.696 374.489 290.072V251.576H366.809V249.656H374.489C374.489 244.024 374.841 239.672 375.545 236.6C376.249 233.528 377.529 230.904 379.385 228.728C380.665 227.256 382.297 226.104 384.281 225.272C386.265 224.376 388.441 223.928 390.809 223.928ZM420.898 248.216C427.426 248.216 432.674 250.392 436.642 254.744C440.674 259.032 442.69 265.56 442.69 274.328C442.69 283.096 440.674 289.624 436.642 293.912C432.674 298.2 427.426 300.344 420.898 300.344C414.37 300.344 409.09 298.2 405.058 293.912C401.09 289.624 399.106 283.096 399.106 274.328C399.106 265.56 401.09 259.032 405.058 254.744C409.09 250.392 414.37 248.216 420.898 248.216ZM420.898 250.136C417.058 250.136 414.018 252.12 411.778 256.088C409.538 259.992 408.418 266.072 408.418 274.328C408.418 282.584 409.538 288.664 411.778 292.568C414.018 296.472 417.058 298.424 420.898 298.424C424.738 298.424 427.778 296.472 430.018 292.568C432.258 288.664 433.378 282.584 433.378 274.328C433.378 266.072 432.258 259.992 430.018 256.088C427.778 252.12 424.738 250.136 420.898 250.136ZM460.916 225.56C462.58 225.56 464.02 226.168 465.236 227.384C466.452 228.6 467.06 230.04 467.06 231.704C467.06 233.368 466.452 234.808 465.236 236.024C464.02 237.24 462.58 237.848 460.916 237.848C459.252 237.848 457.812 237.24 456.596 236.024C455.38 234.808 454.772 233.368 454.772 231.704C454.772 230.04 455.38 228.6 456.596 227.384C457.812 226.168 459.252 225.56 460.916 225.56ZM465.908 290.072C465.908 292.696 466.452 294.52 467.54 295.544C468.628 296.504 470.516 296.984 473.204 296.984V299C467.316 298.744 463.444 298.616 461.588 298.616C459.732 298.616 455.86 298.744 449.972 299V296.984C452.66 296.984 454.548 296.504 455.636 295.544C456.724 294.52 457.268 292.696 457.268 290.072V260.024C457.268 257.08 456.724 254.936 455.636 253.592C454.548 252.248 452.66 251.576 449.972 251.576V249.56C452.02 249.752 454.004 249.848 455.924 249.848C459.956 249.848 463.284 249.4 465.908 248.504V290.072Z" fill="black"/>
<path d="M265.248 131.784C263.84 136.648 261.824 140.296 259.2 142.728C256.064 145.608 251.744 147.048 246.24 147.048C243.296 147.048 240.416 146.6 237.6 145.704C234.784 144.808 231.232 143.4 226.944 141.48C222.208 139.432 218.336 137.896 215.328 136.872L213.024 136.2C210.272 137.16 207.616 137.64 205.056 137.64C202.112 137.64 200.64 137 200.64 135.72C200.64 134.376 202.368 133.704 205.824 133.704C208.064 133.704 210.464 133.96 213.024 134.472C215.072 133.896 217.44 133 220.128 131.784C221.792 131.016 223.04 130.472 223.872 130.152C218.432 129.64 213.696 127.944 209.664 125.064C205.696 122.184 202.592 118.248 200.352 113.256C198.176 108.2 197.088 102.312 197.088 95.592C197.088 88.552 198.368 82.312 200.928 76.872C203.552 71.432 207.168 67.208 211.776 64.2C216.448 61.192 221.728 59.688 227.616 59.688C233.696 59.688 239.008 61.064 243.552 63.816C248.16 66.568 251.712 70.568 254.208 75.816C256.768 81 258.048 87.208 258.048 94.44C258.048 101.096 256.896 107.048 254.592 112.296C252.288 117.48 249.056 121.64 244.896 124.776C240.736 127.848 235.968 129.64 230.592 130.152V130.248C229.056 130.44 227.712 130.696 226.56 131.016C225.472 131.4 224 131.976 222.144 132.744C219.84 133.768 217.92 134.504 216.384 134.952C223.488 136.36 229.504 137.48 234.432 138.312C239.424 139.144 243.552 139.56 246.816 139.56C251.36 139.56 254.944 138.888 257.568 137.544C260.256 136.264 262.336 134.152 263.808 131.208L265.248 131.784ZM206.688 95.208C206.688 101.864 207.616 107.72 209.472 112.776C211.392 117.832 213.952 121.736 217.152 124.488C220.352 127.24 223.936 128.616 227.904 128.616C232 128.616 235.584 127.208 238.656 124.392C241.792 121.512 244.192 117.512 245.856 112.392C247.584 107.272 248.448 101.416 248.448 94.824C248.448 88.168 247.488 82.312 245.568 77.256C243.712 72.2 241.184 68.296 237.984 65.544C234.784 62.792 231.2 61.416 227.232 61.416C223.136 61.416 219.52 62.856 216.384 65.736C213.312 68.552 210.912 72.52 209.184 77.64C207.52 82.76 206.688 88.616 206.688 95.208Z" fill="black"/>
<path d="M93.15 381.9C93.15 383.067 93.3833 383.867 93.85 384.3C94.35 384.767 95.2167 385 96.45 385V386.05C93.65 385.917 91.85 385.85 91.05 385.85C90.1167 385.85 88.1 385.9 85 386L83.85 386.05V385C85.45 385 86.65 384.733 87.45 384.2C88.25 383.7 88.65 382.767 88.65 381.4V372.8C87.9833 374.367 87.0333 375.583 85.8 376.45C84.6 377.283 83.2167 377.7 81.65 377.7C79.6833 377.7 77.9167 377.2 76.35 376.2C74.8167 375.2 73.6 373.683 72.7 371.65C71.8 369.617 71.35 367.117 71.35 364.15C71.35 361.217 71.8167 358.733 72.75 356.7C73.6833 354.633 74.95 353.1 76.55 352.1C78.1833 351.067 80.0167 350.55 82.05 350.55C83.75 350.55 85.1667 350.85 86.3 351.45C87.4333 352.017 88.3667 352.933 89.1 354.2L92.65 350.45L93.5 350.8C93.2667 351.633 93.15 352.6 93.15 353.7V381.9ZM83.1 376.2C84.3333 376.2 85.45 375.7 86.45 374.7C87.4833 373.7 88.2167 372.283 88.65 370.45V355C88.0167 353.9 87.1667 353.083 86.1 352.55C85.0333 351.983 83.8167 351.7 82.45 351.7C80.45 351.7 78.9 352.733 77.8 354.8C76.7333 356.867 76.2 359.983 76.2 364.15C76.2 368.15 76.7833 371.167 77.95 373.2C79.15 375.2 80.8667 376.2 83.1 376.2ZM121.324 371.6C121.324 373.133 121.607 374.25 122.174 374.95C122.74 375.65 123.724 376 125.124 376V377.05C124.09 376.95 123.057 376.9 122.024 376.9C119.924 376.9 118.19 377.133 116.824 377.6V371.7C116.024 373.767 114.89 375.283 113.424 376.25C111.957 377.217 110.357 377.7 108.624 377.7C106.357 377.7 104.624 377.067 103.424 375.8C102.824 375.133 102.39 374.283 102.124 373.25C101.89 372.217 101.774 370.883 101.774 369.25V356.7C101.774 355.167 101.49 354.05 100.924 353.35C100.357 352.65 99.3738 352.3 97.9738 352.3V351.25C99.0072 351.35 100.04 351.4 101.074 351.4C103.174 351.4 104.907 351.167 106.274 350.7V370.35C106.274 371.617 106.34 372.65 106.474 373.45C106.64 374.217 106.99 374.85 107.524 375.35C108.09 375.85 108.94 376.1 110.074 376.1C111.34 376.1 112.49 375.7 113.524 374.9C114.557 374.1 115.357 373.017 115.924 371.65C116.524 370.25 116.824 368.717 116.824 367.05V356.7C116.824 355.167 116.54 354.05 115.974 353.35C115.407 352.65 114.424 352.3 113.024 352.3V351.25C114.057 351.35 115.09 351.4 116.124 351.4C118.224 351.4 119.957 351.167 121.324 350.7V371.6ZM149.377 371C148.777 372.833 147.643 374.417 145.977 375.75C144.343 377.05 142.36 377.7 140.027 377.7C137.66 377.7 135.61 377.167 133.877 376.1C132.143 375 130.81 373.483 129.877 371.55C128.977 369.583 128.527 367.317 128.527 364.75C128.527 361.85 128.993 359.333 129.927 357.2C130.86 355.067 132.177 353.433 133.877 352.3C135.577 351.133 137.56 350.55 139.827 350.55C142.827 350.55 145.127 351.467 146.727 353.3C148.36 355.1 149.177 357.85 149.177 361.55H133.527C133.427 362.483 133.377 363.55 133.377 364.75C133.377 366.95 133.727 368.867 134.427 370.5C135.16 372.133 136.11 373.4 137.277 374.3C138.477 375.167 139.727 375.6 141.027 375.6C142.627 375.6 144.043 375.217 145.277 374.45C146.51 373.683 147.543 372.4 148.377 370.6L149.377 371ZM139.627 351.5C138.06 351.5 136.71 352.267 135.577 353.8C134.443 355.333 133.743 357.6 133.477 360.6H144.377C144.443 358 144.06 355.833 143.227 354.1C142.427 352.367 141.227 351.5 139.627 351.5ZM187.121 371C186.521 372.833 185.387 374.417 183.721 375.75C182.087 377.05 180.104 377.7 177.771 377.7C175.404 377.7 173.354 377.167 171.621 376.1C169.887 375 168.554 373.483 167.621 371.55C166.721 369.583 166.271 367.317 166.271 364.75C166.271 361.85 166.737 359.333 167.671 357.2C168.604 355.067 169.921 353.433 171.621 352.3C173.321 351.133 175.304 350.55 177.571 350.55C180.571 350.55 182.871 351.467 184.471 353.3C186.104 355.1 186.921 357.85 186.921 361.55H171.271C171.171 362.483 171.121 363.55 171.121 364.75C171.121 366.95 171.471 368.867 172.171 370.5C172.904 372.133 173.854 373.4 175.021 374.3C176.221 375.167 177.471 375.6 178.771 375.6C180.371 375.6 181.787 375.217 183.021 374.45C184.254 373.683 185.287 372.4 186.121 370.6L187.121 371ZM177.371 351.5C175.804 351.5 174.454 352.267 173.321 353.8C172.187 355.333 171.487 357.6 171.221 360.6H182.121C182.187 358 181.804 355.833 180.971 354.1C180.171 352.367 178.971 351.5 177.371 351.5ZM213.414 371.6C213.414 373.133 213.697 374.25 214.264 374.95C214.83 375.65 215.814 376 217.214 376V377.05C216.18 376.95 215.147 376.9 214.114 376.9C212.014 376.9 210.28 377.133 208.914 377.6V371.7C208.114 373.767 206.98 375.283 205.514 376.25C204.047 377.217 202.447 377.7 200.714 377.7C198.447 377.7 196.714 377.067 195.514 375.8C194.914 375.133 194.48 374.283 194.214 373.25C193.98 372.217 193.864 370.883 193.864 369.25V356.7C193.864 355.167 193.58 354.05 193.014 353.35C192.447 352.65 191.464 352.3 190.064 352.3V351.25C191.097 351.35 192.13 351.4 193.164 351.4C195.264 351.4 196.997 351.167 198.364 350.7V370.35C198.364 371.617 198.43 372.65 198.564 373.45C198.73 374.217 199.08 374.85 199.614 375.35C200.18 375.85 201.03 376.1 202.164 376.1C203.43 376.1 204.58 375.7 205.614 374.9C206.647 374.1 207.447 373.017 208.014 371.65C208.614 370.25 208.914 368.717 208.914 367.05V356.7C208.914 355.167 208.63 354.05 208.064 353.35C207.497 352.65 206.514 352.3 205.114 352.3V351.25C206.147 351.35 207.18 351.4 208.214 351.4C210.314 351.4 212.047 351.167 213.414 350.7V371.6ZM249.018 337.9C250.384 337.9 251.651 338.033 252.818 338.3C254.018 338.567 254.984 338.933 255.718 339.4C256.851 340.1 257.418 341.017 257.418 342.15C257.418 343.05 257.101 343.817 256.468 344.45C255.834 345.083 255.084 345.4 254.218 345.4C253.351 345.4 252.601 345.083 251.968 344.45C251.334 343.817 251.018 343.067 251.018 342.2C251.018 341.6 251.168 341.05 251.468 340.55C251.768 340.05 252.168 339.667 252.668 339.4C251.901 338.9 250.684 338.65 249.018 338.65C245.718 338.65 243.351 339.933 241.918 342.5C241.418 343.367 241.068 344.467 240.868 345.8C240.668 347.1 240.568 348.933 240.568 351.3H248.618C250.718 351.3 252.351 351.267 253.518 351.2C254.718 351.1 255.851 350.933 256.918 350.7V372.35C256.918 373.717 257.201 374.667 257.768 375.2C258.334 375.7 259.318 375.95 260.718 375.95V377C257.651 376.867 255.634 376.8 254.668 376.8C253.701 376.8 251.684 376.867 248.618 377V375.95C250.018 375.95 251.001 375.7 251.568 375.2C252.134 374.667 252.418 373.717 252.418 372.35V356.7C252.418 355.167 252.134 354.05 251.568 353.35C251.001 352.65 250.018 352.3 248.618 352.3H240.568V372.35C240.568 373.717 240.918 374.667 241.618 375.2C242.351 375.7 243.434 375.95 244.868 375.95V377L243.768 376.95C240.868 376.85 239.051 376.8 238.318 376.8C237.351 376.8 235.334 376.867 232.268 377V375.95C233.668 375.95 234.651 375.7 235.218 375.2C235.784 374.667 236.068 373.717 236.068 372.35V352.3H232.068V351.3H236.068C236.068 346.8 237.268 343.417 239.668 341.15C240.701 340.183 242.001 339.4 243.568 338.8C245.134 338.2 246.951 337.9 249.018 337.9ZM269.225 376.25H274.725C276.791 376.25 278.408 375.617 279.575 374.35C280.741 373.05 281.441 371 281.675 368.2H282.825C282.825 372.567 282.891 375.567 283.025 377.2C280.391 377.067 277.291 377 273.725 377C270.558 377 267.191 377.083 263.625 377.25L278.075 352H272.575C270.341 352 268.675 352.633 267.575 353.9C266.508 355.133 265.858 357.183 265.625 360.05H264.475C264.475 355.683 264.408 352.683 264.275 351.05C266.908 351.183 270.008 351.25 273.575 351.25C276.741 351.25 280.108 351.167 283.675 351L269.225 376.25ZM305.105 338.75C305.972 338.75 306.722 339.067 307.355 339.7C307.988 340.333 308.305 341.083 308.305 341.95C308.305 342.817 307.988 343.567 307.355 344.2C306.722 344.833 305.972 345.15 305.105 345.15C304.238 345.15 303.488 344.833 302.855 344.2C302.222 343.567 301.905 342.817 301.905 341.95C301.905 341.083 302.222 340.333 302.855 339.7C303.488 339.067 304.238 338.75 305.105 338.75ZM307.705 372.35C307.705 373.717 307.988 374.667 308.555 375.2C309.122 375.7 310.105 375.95 311.505 375.95V377C308.438 376.867 306.422 376.8 305.455 376.8C304.488 376.8 302.472 376.867 299.405 377V375.95C300.805 375.95 301.788 375.7 302.355 375.2C302.922 374.667 303.205 373.717 303.205 372.35V356.7C303.205 355.167 302.922 354.05 302.355 353.35C301.788 352.65 300.805 352.3 299.405 352.3V351.25C300.472 351.35 301.505 351.4 302.505 351.4C304.605 351.4 306.338 351.167 307.705 350.7V372.35ZM323.004 350.55C324.204 350.55 325.27 350.733 326.204 351.1C327.137 351.467 327.887 351.9 328.454 352.4C328.82 352.667 329.12 352.8 329.354 352.8C329.954 352.8 330.32 352.067 330.454 350.6H331.604C331.47 352.233 331.404 355.067 331.404 359.1H330.254C329.887 356.9 329.17 355.083 328.104 353.65C327.07 352.217 325.52 351.5 323.454 351.5C322.254 351.5 321.27 351.85 320.504 352.55C319.737 353.217 319.354 354.15 319.354 355.35C319.354 356.517 319.754 357.5 320.554 358.3C321.354 359.067 322.637 360 324.404 361.1C324.704 361.267 325.154 361.55 325.754 361.95C327.287 362.95 328.52 363.833 329.454 364.6C330.387 365.367 331.137 366.25 331.704 367.25C332.304 368.25 332.604 369.4 332.604 370.7C332.604 372.9 331.77 374.617 330.104 375.85C328.47 377.083 326.454 377.7 324.054 377.7C322.554 377.7 321.237 377.467 320.104 377C319.37 376.633 318.687 376.183 318.054 375.65C317.92 375.517 317.77 375.45 317.604 375.45C317.37 375.45 317.154 375.617 316.954 375.95C316.787 376.283 316.654 376.75 316.554 377.35H315.404C315.537 375.45 315.604 372.117 315.604 367.35H316.754C317.12 370.483 317.787 372.833 318.754 374.4C319.72 375.933 321.37 376.7 323.704 376.7C324.87 376.7 325.904 376.317 326.804 375.55C327.704 374.783 328.154 373.583 328.154 371.95C328.154 370.65 327.704 369.55 326.804 368.65C325.937 367.75 324.504 366.667 322.504 365.4C320.87 364.367 319.604 363.517 318.704 362.85C317.837 362.183 317.104 361.367 316.504 360.4C315.904 359.433 315.604 358.3 315.604 357C315.604 354.9 316.304 353.3 317.704 352.2C319.104 351.1 320.87 350.55 323.004 350.55ZM345.367 350.55C346.567 350.55 347.633 350.733 348.567 351.1C349.5 351.467 350.25 351.9 350.817 352.4C351.183 352.667 351.483 352.8 351.717 352.8C352.317 352.8 352.683 352.067 352.817 350.6H353.967C353.833 352.233 353.767 355.067 353.767 359.1H352.617C352.25 356.9 351.533 355.083 350.467 353.65C349.433 352.217 347.883 351.5 345.817 351.5C344.617 351.5 343.633 351.85 342.867 352.55C342.1 353.217 341.717 354.15 341.717 355.35C341.717 356.517 342.117 357.5 342.917 358.3C343.717 359.067 345 360 346.767 361.1C347.067 361.267 347.517 361.55 348.117 361.95C349.65 362.95 350.883 363.833 351.817 364.6C352.75 365.367 353.5 366.25 354.067 367.25C354.667 368.25 354.967 369.4 354.967 370.7C354.967 372.9 354.133 374.617 352.467 375.85C350.833 377.083 348.817 377.7 346.417 377.7C344.917 377.7 343.6 377.467 342.467 377C341.733 376.633 341.05 376.183 340.417 375.65C340.283 375.517 340.133 375.45 339.967 375.45C339.733 375.45 339.517 375.617 339.317 375.95C339.15 376.283 339.017 376.75 338.917 377.35H337.767C337.9 375.45 337.967 372.117 337.967 367.35H339.117C339.483 370.483 340.15 372.833 341.117 374.4C342.083 375.933 343.733 376.7 346.067 376.7C347.233 376.7 348.267 376.317 349.167 375.55C350.067 374.783 350.517 373.583 350.517 371.95C350.517 370.65 350.067 369.55 349.167 368.65C348.3 367.75 346.867 366.667 344.867 365.4C343.233 364.367 341.967 363.517 341.067 362.85C340.2 362.183 339.467 361.367 338.867 360.4C338.267 359.433 337.967 358.3 337.967 357C337.967 354.9 338.667 353.3 340.067 352.2C341.467 351.1 343.233 350.55 345.367 350.55ZM371.03 350.55C374.43 350.55 377.163 351.683 379.23 353.95C381.33 356.183 382.38 359.583 382.38 364.15C382.38 368.717 381.33 372.117 379.23 374.35C377.163 376.583 374.43 377.7 371.03 377.7C367.63 377.7 364.88 376.583 362.78 374.35C360.713 372.117 359.68 368.717 359.68 364.15C359.68 359.583 360.713 356.183 362.78 353.95C364.88 351.683 367.63 350.55 371.03 350.55ZM371.03 351.55C369.03 351.55 367.447 352.583 366.28 354.65C365.113 356.683 364.53 359.85 364.53 364.15C364.53 368.45 365.113 371.617 366.28 373.65C367.447 375.683 369.03 376.7 371.03 376.7C373.03 376.7 374.613 375.683 375.78 373.65C376.947 371.617 377.53 368.45 377.53 364.15C377.53 359.85 376.947 356.683 375.78 354.65C374.613 352.583 373.03 351.55 371.03 351.55ZM394.545 337.9C397.712 337.9 400.245 338.717 402.145 340.35C404.078 341.95 405.045 344.133 405.045 346.9C405.045 349.633 404.028 351.95 401.995 353.85C399.995 355.75 397.262 357.133 393.795 358V365.3H392.795V357.55C395.862 356.417 397.928 355.083 398.995 353.55C400.062 351.983 400.595 350.083 400.595 347.85C400.595 344.817 399.962 342.567 398.695 341.1C397.462 339.633 395.762 338.9 393.595 338.9C392.628 338.9 391.695 339.033 390.795 339.3C389.928 339.567 389.228 340.033 388.695 340.7C389.328 340.833 389.828 341.117 390.195 341.55C390.595 341.983 390.795 342.55 390.795 343.25C390.795 344.083 390.528 344.75 389.995 345.25C389.462 345.717 388.812 345.95 388.045 345.95C387.278 345.95 386.645 345.7 386.145 345.2C385.645 344.7 385.395 344.067 385.395 343.3C385.395 341.967 386.178 340.767 387.745 339.7C389.512 338.5 391.778 337.9 394.545 337.9ZM393.345 371.3C394.212 371.3 394.962 371.617 395.595 372.25C396.228 372.883 396.545 373.633 396.545 374.5C396.545 375.367 396.228 376.117 395.595 376.75C394.962 377.383 394.212 377.7 393.345 377.7C392.478 377.7 391.728 377.383 391.095 376.75C390.462 376.117 390.145 375.367 390.145 374.5C390.145 373.633 390.462 372.883 391.095 372.25C391.728 371.617 392.478 371.3 393.345 371.3Z" fill="black"/>
<line x1="37" y1="96" x2="137" y2="96" stroke="#006E25" stroke-width="8"/>
<line x1="326" y1="96" x2="426" y2="96" stroke="#006E25" stroke-width="8"/>
</svg>
